arm26_optimize_states
version=1
nRows=31
nColumns=17
inDegrees=yes

# SIMM Motion File Header:
name arm26_optimize_states
datacolumns 17
datarows 31
otherdata 1
range 2.36454639 2.41241452
endheader
time	r_shoulder_elev	r_elbow_flex	r_shoulder_elev_u	r_elbow_flex_u	TRIlong.activation	TRIlong.fiber_length	TRIlat.activation	TRIlat.fiber_length	TRImed.activation	TRImed.fiber_length	BIClong.activation	BIClong.fiber_length	BICshort.activation	BICshort.fiber_length	BRA.activation	BRA.fiber_length
      2.36454639	     32.75328816	    -11.12520454	    100.46634689	     65.64169066	      0.01000000	      0.15370105	      0.08110065	      0.06683075	      0.18169609	      0.06159482	      0.10000183	      0.13662640	      0.01000000	      0.15369195	      0.10918992	      0.08551775
      2.36595425	     32.89527612	    -11.03660852	    101.23809183	     60.22014542	      0.01000000	      0.15376324	      0.08110065	      0.06685015	      0.18169609	      0.06161399	      0.10000183	      0.13658430	      0.01000000	      0.15374046	      0.10918992	      0.08553032
      2.36736211	     33.03833862	    -10.95563109	    101.99255097	     54.82000954	      0.01000000	      0.15387370	      0.08110065	      0.06686858	      0.18169609	      0.06163217	      0.10000183	      0.13654205	      0.01000000	      0.15378987	      0.10918992	      0.08554206
      2.36876998	     33.18245450	    -10.88223815	    102.73549346	     49.44669461	      0.01000000	      0.15395193	      0.08110065	      0.06688599	      0.18169609	      0.06164933	      0.10000183	      0.13649966	      0.01000000	      0.15384019	      0.10918992	      0.08555298
      2.37017784	     33.32760294	    -10.81638482	    103.45723345	     44.11118075	      0.01000000	      0.15407054	      0.08110065	      0.06690236	      0.18169609	      0.06166543	      0.10000183	      0.13645717	      0.01000000	      0.15389144	      0.10918992	      0.08556311
      2.37158570	     33.47375571	    -10.75801290	    104.16251279	     38.81990822	      0.01000000	      0.15413873	      0.08110065	      0.06691767	      0.18169609	      0.06168047	      0.10000183	      0.13641459	      0.01000000	      0.15394361	      0.10918992	      0.08557245
      2.37299356	     33.62088260	    -10.70705294	    104.84004176	     33.58318980	      0.01000000	      0.15424658	      0.08110065	      0.06693190	      0.18169609	      0.06169440	      0.10000183	      0.13637196	      0.01000000	      0.15399673	      0.10918992	      0.08558102
      2.37445468	     33.77456433	    -10.66191581	    105.51844369	     28.21318161	      0.01000000	      0.15432461	      0.08110065	      0.06694551	      0.18169609	      0.06170769	      0.10000183	      0.13632768	      0.01000000	      0.15405285	      0.10918992	      0.08558912
      2.37591579	     33.92921339	    -10.62457087	    106.16198476	     22.91863522	      0.01000000	      0.15444366	      0.08110065	      0.06695794	      0.18169609	      0.06171977	      0.10000183	      0.13628339	      0.01000000	      0.15410997	      0.10918992	      0.08559642
      2.37737690	     34.08478064	    -10.59490226	    106.77554774	     17.70696788	      0.01000000	      0.15451099	      0.08110065	      0.06696918	      0.18169609	      0.06173065	      0.10000183	      0.13623912	      0.01000000	      0.15416808	      0.10918992	      0.08560295
      2.37883801	     34.24121499	    -10.57278260	    107.34797059	     12.58671465	      0.01000000	      0.15461735	      0.08110065	      0.06697924	      0.18169609	      0.06174033	      0.10000183	      0.13619488	      0.01000000	      0.15422717	      0.10918992	      0.08560871
      2.38036589	     34.40566165	    -10.55757566	    107.90729341	      7.33790871	      0.01000000	      0.15469629	      0.08110065	      0.06698851	      0.18169609	      0.06174917	      0.10000183	      0.13614869	      0.01000000	      0.15428998	      0.10918992	      0.08561395
      2.38189376	     34.57092687	    -10.55030077	    108.41719525	      2.20490150	      0.01000000	      0.15481517	      0.08110065	      0.06699652	      0.18169609	      0.06175671	      0.10000183	      0.13610258	      0.01000000	      0.15435381	      0.10918992	      0.08561839
      2.38342164	     34.73693710	    -10.55077528	    108.88290379	     -2.80492126	      0.01000000	      0.15488221	      0.08110065	      0.06700328	      0.18169609	      0.06176297	      0.10000183	      0.13605658	      0.01000000	      0.15441864	      0.10918992	      0.08562207
      2.38494951	     34.90361739	    -10.55880565	    109.29340377	     -7.68468801	      0.01000000	      0.15498729	      0.08110065	      0.06700881	      0.18169609	      0.06176798	      0.10000183	      0.13601071	      0.01000000	      0.15448441	      0.10918992	      0.08562499
      2.38655103	     35.07896138	    -10.57511180	    109.66970622	    -12.65313452	      0.01000000	      0.15506657	      0.08110065	      0.06701334	      0.18169609	      0.06177191	      0.10000183	      0.13596280	      0.01000000	      0.15455432	      0.10918992	      0.08562726
      2.38815255	     35.25485853	    -10.59925061	    109.98193222	    -17.46518164	      0.01000000	      0.15518295	      0.08110065	      0.06701659	      0.18169609	      0.06177453	      0.10000183	      0.13591507	      0.01000000	      0.15462518	      0.10918992	      0.08562876
      2.38975407	     35.43120851	    -10.63096678	    110.23588114	    -22.11498012	      0.01000000	      0.15525118	      0.08110065	      0.06701861	      0.18169609	      0.06177587	      0.10000183	      0.13586754	      0.01000000	      0.15469693	      0.10918992	      0.08562949
      2.39135559	     35.60791100	    -10.66999628	    110.42117548	    -26.59732281	      0.01000000	      0.15535469	      0.08110065	      0.06701943	      0.18169609	      0.06177589	      0.10000183	      0.13582023	      0.01000000	      0.15476951	      0.10918992	      0.08562942
      2.39302734	     35.79262373	    -10.71824906	    110.55029466	    -31.10148659	      0.01000000	      0.15543349	      0.08110065	      0.06701868	      0.18169609	      0.06177366	      0.10000183	      0.13577110	      0.01000000	      0.15484609	      0.10918992	      0.08562797
      2.39469908	     35.97749661	    -10.77389141	    110.61158754	    -35.43973251	      0.01000000	      0.15554390	      0.08110065	      0.06701568	      0.18169609	      0.06176925	      0.10000183	      0.13572224	      0.01000000	      0.15492342	      0.10918992	      0.08562522
      2.39637083	     36.16242315	    -10.83665586	    110.61635850	    -39.62378015	      0.01000000	      0.15561506	      0.08110065	      0.06701062	      0.18169609	      0.06176289	      0.10000183	      0.13567367	      0.01000000	      0.15500145	      0.10918992	      0.08562132
      2.39804258	     36.34730665	    -10.90629124	    110.55941882	    -43.66069101	      0.01000000	      0.15571545	      0.08110065	      0.06700369	      0.18169609	      0.06175479	      0.10000183	      0.13562540	      0.01000000	      0.15508009	      0.10918992	      0.08561637
      2.39978892	     36.54028802	    -10.98611103	    110.44352474	    -47.72805142	      0.01000000	      0.15579433	      0.08110065	      0.06699465	      0.18169609	      0.06174465	      0.10000183	      0.13557530	      0.01000000	      0.15516282	      0.10918992	      0.08561016
      2.40153526	     36.73301387	    -11.07290303	    110.26514693	    -51.64576463	      0.01000000	      0.15589904	      0.08110065	      0.06698392	      0.18169609	      0.06173296	      0.10000183	      0.13552555	      0.01000000	      0.15524608	      0.10918992	      0.08560295
      2.40328161	     36.92537941	    -11.16640977	    110.03260220	    -55.41911806	      0.01000000	      0.15597250	      0.08110065	      0.06697165	      0.18169609	      0.06171985	      0.10000183	      0.13547615	      0.01000000	      0.15532978	      0.10918992	      0.08559481
      2.40502795	     37.11728690	    -11.26638032	    109.73935949	    -59.04823000	      0.01000000	      0.15606932	      0.08110065	      0.06695798	      0.18169609	      0.06170545	      0.10000183	      0.13542712	      0.01000000	      0.15541385	      0.10918992	      0.08558578
      2.40677429	     37.30863415	    -11.37256535	    109.39239717	    -62.53708274	      0.01000000	      0.15614517	      0.08110065	      0.06694303	      0.18169609	      0.06168987	      0.10000183	      0.13537845	      0.01000000	      0.15549822	      0.10918992	      0.08557589
      2.40852064	     37.49932529	    -11.48472007	    108.98688126	    -65.88460230	      0.01000000	      0.15623617	      0.08110065	      0.06692692	      0.18169609	      0.06167322	      0.10000183	      0.13533015	      0.01000000	      0.15558279	      0.10918992	      0.08556517
      2.41067260	     37.73325776	    -11.63077220	    108.41413125	    -69.81989979	      0.01000000	      0.15632922	      0.08110065	      0.06690563	      0.18169609	      0.06165138	      0.10000183	      0.13527114	      0.01000000	      0.15568717	      0.10918992	      0.08555086
      2.41241452	     37.92165479	    -11.75505152	    107.88541982	    -72.84883868	      0.01000000	      0.15642412	      0.08110065	      0.06688736	      0.18169609	      0.06163274	      0.10000183	      0.13522378	      0.01000000	      0.15577176	      0.10918992	      0.08553842
